# xmcd
#
# Track frame offsets: 
#        150
#        16735
#        27651
#        37449
#        52719
#        70868
#        86140
#        103102
#        114605
#        132891
#        150265
#        165553
#        178837
#
# Disc length: 2523 seconds
#
# Revision: 0
# Processed by: cddbd v1.5.2PL0 Copyright (c) Steve Scherf et al.
# Submitted via: ExactAudioCopy v0.95b4
#
DISCID=a809d90d
DTITLE=Gypsy Carns - G Force
DYEAR=2002
DGENRE=Blues
TTITLE0=Searchin'
TTITLE1=English Rose
TTITLE2=Master J
TTITLE3=Roswell
TTITLE4=Sanctify'd News
TTITLE5=Now I'm Alive
TTITLE6=Wailin' Wall
TTITLE7=Stock Market Blues
TTITLE8=The Battle Rages On
TTITLE9=Authority Song
TTITLE10=Stand
TTITLE11=Feel Good
TTITLE12=Stand Up For the Lamb
EXTD=
EXTT0=
EXTT1=
EXTT2=
EXTT3=
EXTT4=
EXTT5=
EXTT6=
EXTT7=
EXTT8=
EXTT9=
EXTT10=
EXTT11=
EXTT12=
PLAYORDER=
